<svg width="64" height="64" fill="none" xmlns="http://www.w3.org/2000/svg"><circle cx="32" cy="32" r="32" fill="#FDF6E7"/><path d="M42.654 21.889l-3.865 6.444H47l-4.345-6.444zM26.164 30.16h-9.076l13.408 14.396-4.332-14.396zM31.969 21.337l-3.617 6.996h7.464l-3.847-6.996zM22.797 21.198l3.97 6.22 3.216-6.22h-7.186zM21.205 22.098L17 28.333h8.184l-3.98-6.235zM28.064 30.16l4.23 14.642 3.878-14.642h-8.107zM33.977 21.198l3.33 6.057 3.633-6.057h-6.963zM38.063 30.16l-3.794 14.325L46.928 30.16h-8.864z" fill="#ECA400"/></svg>