<svg width="64" height="64" fill="none" xmlns="http://www.w3.org/2000/svg"><circle cx="32" cy="32" r="32" fill="#FDF6E7"/><path d="M44.98 21.935a.585.585 0 00-.289-.364L39.75 18.91a7.713 7.713 0 00-3.615-.91.587.587 0 00-.59.583 4.389 4.389 0 01-1.045 2.984 3.316 3.316 0 01-2.501 1.1c-2.054 0-3.546-1.718-3.546-4.084a.587.587 0 00-.59-.583 7.714 7.714 0 00-3.616.911l-4.94 2.66a.58.58 0 00-.22.816l2.955 4.666a.593.593 0 00.502.28h1.19c.03 1.069.136 2.11.245 3.201.213 1.842.325 3.694.337 5.547a28.608 28.608 0 01-1.736 7.963.581.581 0 00.368.756c2.94.837 5.99 1.24 9.05 1.197 3.061.044 6.111-.36 9.052-1.197a.582.582 0 00.374-.738l-.007-.018a28.571 28.571 0 01-1.736-7.963 51.34 51.34 0 01.337-5.547c.111-1.091.216-2.132.246-3.202h1.19a.593.593 0 00.501-.274l2.955-4.666a.577.577 0 00.07-.457z" fill="#ECA400"/></svg>