<svg width="64" height="64" fill="none" xmlns="http://www.w3.org/2000/svg"><circle cx="32" cy="32" r="32" fill="#E7F4F9"/><path d="M44 22.667C42.52 22.2 40.895 22 39.335 22c-2.6 0-5.4.533-7.333 2-1.934-1.467-4.734-2-7.334-2-2.6 0-5.4.533-7.333 2v19.533c0 .334.333.667.667.667.133 0 .2-.067.333-.067 1.8-.866 4.4-1.466 6.333-1.466 2.6 0 5.4.533 7.334 2 1.8-1.134 5.066-2 7.333-2 2.2 0 4.467.4 6.333 1.4.134.066.2.066.334.066.333 0 .666-.333.666-.666V24c-.8-.6-1.666-1-2.666-1.333zm0 18C42.535 40.2 40.935 40 39.335 40c-2.267 0-5.533.867-7.333 2V26.667c1.8-1.134 5.066-2 7.333-2 1.6 0 3.2.2 4.667.666v15.334z" fill="#0090C1"/><path d="M39.334 30c1.173 0 2.307.12 3.333.347V28.32c-1.053-.2-2.186-.32-3.333-.32-2.267 0-4.32.387-6 1.107v2.213c1.507-.853 3.6-1.32 6-1.32zM33.334 32.654v2.213c1.507-.853 3.6-1.32 6-1.32 1.173 0 2.307.12 3.333.347v-2.027c-1.053-.2-2.186-.32-3.333-.32-2.267 0-4.32.4-6 1.107zM39.334 35.106c-2.267 0-4.32.387-6 1.107v2.213c1.507-.853 3.6-1.32 6-1.32 1.173 0 2.307.12 3.333.347v-2.027a16.932 16.932 0 00-3.333-.32z" fill="#0090C1"/></svg>