<svg width="64" height="64" fill="none" xmlns="http://www.w3.org/2000/svg"><circle cx="32" cy="32" r="32" fill="#FFEBF0"/><path d="M32 48c7.179 0 13-5.949 13-13.286-7.179 0-13 5.95-13 13.286zm-9.244-17.345c0 2.037 1.617 3.69 3.61 3.69a3.54 3.54 0 002.052-.65l-.03.281c0 2.037 1.619 3.69 3.612 3.69s3.611-1.653 3.611-3.69l-.029-.28c.578.413 1.286.65 2.051.65 1.994 0 3.611-1.654 3.611-3.691a3.684 3.684 0 00-2.065-3.322 3.683 3.683 0 002.065-3.321c0-2.037-1.617-3.69-3.61-3.69a3.54 3.54 0 00-2.052.649l.03-.28C35.611 18.652 33.992 17 32 17s-3.611 1.653-3.611 3.69l.029.281a3.506 3.506 0 00-2.051-.65c-1.994 0-3.611 1.654-3.611 3.69 0 1.477.852 2.732 2.065 3.322a3.684 3.684 0 00-2.065 3.322zM32 23.643c1.993 0 3.611 1.653 3.611 3.69 0 2.038-1.618 3.69-3.611 3.69s-3.611-1.652-3.611-3.69c0-2.037 1.618-3.69 3.611-3.69zM19 34.714C19 42.051 24.821 48 32 48c0-7.337-5.821-13.286-13-13.286z" fill="#CF3A4B"/></svg>