<svg width="64" height="64" fill="none" xmlns="http://www.w3.org/2000/svg"><circle cx="32" cy="32" r="32" fill="#E0F3ED"/><path d="M13.73 37.477l2.965-1.053c.215.573.552 1.06 1.01 1.46.458.388.953.58 1.483.58.773 0 1.396-.271 1.869-.816.472-.544.709-1.296.709-2.255 0-.888-.251-1.619-.752-2.192-.487-.587-1.103-.88-1.848-.88-1.003 0-1.855.544-2.557 1.632l-2.277-.86.945-9.689h9.26v2.944h-5.994l-.43 3.738c.616-.444 1.375-.666 2.278-.666 1.504 0 2.721.537 3.652 1.611.945 1.06 1.418 2.492 1.418 4.297 0 .76-.115 1.482-.344 2.17a6.385 6.385 0 01-1.053 1.934c-.458.587-1.095 1.06-1.912 1.418-.816.358-1.754.537-2.814.537-1.418 0-2.6-.358-3.545-1.075-.931-.73-1.618-1.675-2.063-2.835zm17.145-5.264c0 4.182.759 6.273 2.277 6.273 1.49 0 2.234-2.09 2.234-6.273 0-4.168-.752-6.252-2.256-6.252-1.503 0-2.255 2.084-2.255 6.252zm-3.674 0c0-1.447.129-2.729.386-3.846.258-1.117.58-2.005.967-2.664a5.767 5.767 0 011.418-1.611c.559-.416 1.089-.695 1.59-.838a5.202 5.202 0 011.568-.236c1.934 0 3.41.823 4.426 2.47 1.032 1.647 1.547 3.889 1.547 6.725 0 2.864-.523 5.113-1.568 6.746-1.031 1.633-2.492 2.45-4.383 2.45-.501 0-.995-.065-1.483-.194-.486-.13-1.01-.394-1.568-.795a6.01 6.01 0 01-1.46-1.59c-.416-.645-.76-1.532-1.032-2.664-.272-1.146-.408-2.463-.408-3.953zm13.363 1.654v-3.05h4.318V26.39h3.416v4.425h4.34v3.051h-4.34v4.598h-3.416v-4.598h-4.318z" fill="#058D66"/></svg>